<mxfile host="app.diagrams.net" agent="Mozilla/5.0 (X11; Linux x86_64) AppleWebKit/537.36 (KHTML, like Gecko) Chrome/132.0.0.0 Safari/537.36" version="27.0.5">
  <diagram name="Page-1" id="ooup3-8qm-paBk7ScRWb">
    <mxGraphModel grid="0" page="1" gridSize="10" guides="1" tooltips="1" connect="1" arrows="1" fold="1" pageScale="1" pageWidth="1169" pageHeight="827" math="0" shadow="0">
      <root>
        <mxCell id="0" />
        <mxCell id="1" parent="0" />
        <mxCell id="jrfLXAw_oT8_YJWAyEZR-24" style="edgeStyle=orthogonalEdgeStyle;rounded=0;orthogonalLoop=1;jettySize=auto;html=1;exitX=1;exitY=0.25;exitDx=0;exitDy=0;entryX=0;entryY=0.5;entryDx=0;entryDy=0;" edge="1" parent="1" source="jrfLXAw_oT8_YJWAyEZR-1" target="jrfLXAw_oT8_YJWAyEZR-4">
          <mxGeometry relative="1" as="geometry" />
        </mxCell>
        <mxCell id="jrfLXAw_oT8_YJWAyEZR-25" style="edgeStyle=orthogonalEdgeStyle;rounded=0;orthogonalLoop=1;jettySize=auto;html=1;exitX=1;exitY=0.75;exitDx=0;exitDy=0;entryX=0;entryY=0.75;entryDx=0;entryDy=0;" edge="1" parent="1" source="jrfLXAw_oT8_YJWAyEZR-1" target="jrfLXAw_oT8_YJWAyEZR-5">
          <mxGeometry relative="1" as="geometry" />
        </mxCell>
        <mxCell id="jrfLXAw_oT8_YJWAyEZR-1" value="Initial" style="rounded=1;whiteSpace=wrap;html=1;" vertex="1" parent="1">
          <mxGeometry x="30" y="89" width="80" height="40" as="geometry" />
        </mxCell>
        <mxCell id="7C_sbKcS_W9XTAqjWsiR-32" style="edgeStyle=orthogonalEdgeStyle;rounded=0;orthogonalLoop=1;jettySize=auto;html=1;entryX=0.5;entryY=0;entryDx=0;entryDy=0;strokeColor=#000066;" edge="1" parent="1" source="jrfLXAw_oT8_YJWAyEZR-3" target="jrfLXAw_oT8_YJWAyEZR-7">
          <mxGeometry relative="1" as="geometry" />
        </mxCell>
        <mxCell id="7C_sbKcS_W9XTAqjWsiR-35" style="edgeStyle=orthogonalEdgeStyle;rounded=0;orthogonalLoop=1;jettySize=auto;html=1;exitX=1;exitY=0.25;exitDx=0;exitDy=0;entryX=0;entryY=0.25;entryDx=0;entryDy=0;" edge="1" parent="1" source="jrfLXAw_oT8_YJWAyEZR-3" target="jrfLXAw_oT8_YJWAyEZR-6">
          <mxGeometry relative="1" as="geometry" />
        </mxCell>
        <mxCell id="7C_sbKcS_W9XTAqjWsiR-38" style="edgeStyle=orthogonalEdgeStyle;rounded=0;orthogonalLoop=1;jettySize=auto;html=1;entryX=0.5;entryY=0;entryDx=0;entryDy=0;strokeColor=#000066;" edge="1" parent="1" source="jrfLXAw_oT8_YJWAyEZR-3" target="jrfLXAw_oT8_YJWAyEZR-4">
          <mxGeometry relative="1" as="geometry">
            <Array as="points">
              <mxPoint x="430" y="29" />
              <mxPoint x="190" y="29" />
            </Array>
          </mxGeometry>
        </mxCell>
        <mxCell id="jrfLXAw_oT8_YJWAyEZR-3" value="Registration Session" style="rounded=1;whiteSpace=wrap;html=1;" vertex="1" parent="1">
          <mxGeometry x="390" y="89" width="80" height="40" as="geometry" />
        </mxCell>
        <mxCell id="jrfLXAw_oT8_YJWAyEZR-23" style="edgeStyle=orthogonalEdgeStyle;rounded=0;orthogonalLoop=1;jettySize=auto;html=1;entryX=0;entryY=0.25;entryDx=0;entryDy=0;" edge="1" parent="1" source="jrfLXAw_oT8_YJWAyEZR-4" target="jrfLXAw_oT8_YJWAyEZR-5">
          <mxGeometry relative="1" as="geometry" />
        </mxCell>
        <mxCell id="jrfLXAw_oT8_YJWAyEZR-4" value="Bootstrap" style="rounded=1;whiteSpace=wrap;html=1;" vertex="1" parent="1">
          <mxGeometry x="150" y="49" width="80" height="40" as="geometry" />
        </mxCell>
        <mxCell id="jrfLXAw_oT8_YJWAyEZR-17" value="" style="edgeStyle=orthogonalEdgeStyle;rounded=0;orthogonalLoop=1;jettySize=auto;html=1;" edge="1" parent="1" source="jrfLXAw_oT8_YJWAyEZR-5" target="jrfLXAw_oT8_YJWAyEZR-3">
          <mxGeometry relative="1" as="geometry" />
        </mxCell>
        <mxCell id="jrfLXAw_oT8_YJWAyEZR-5" value="Registration" style="rounded=1;whiteSpace=wrap;html=1;" vertex="1" parent="1">
          <mxGeometry x="270" y="89" width="80" height="40" as="geometry" />
        </mxCell>
        <mxCell id="7C_sbKcS_W9XTAqjWsiR-36" style="edgeStyle=orthogonalEdgeStyle;rounded=0;orthogonalLoop=1;jettySize=auto;html=1;exitX=0;exitY=0.75;exitDx=0;exitDy=0;entryX=1;entryY=0.75;entryDx=0;entryDy=0;" edge="1" parent="1" source="jrfLXAw_oT8_YJWAyEZR-6" target="jrfLXAw_oT8_YJWAyEZR-3">
          <mxGeometry relative="1" as="geometry" />
        </mxCell>
        <mxCell id="jrfLXAw_oT8_YJWAyEZR-6" value="Queue mode" style="rounded=1;whiteSpace=wrap;html=1;" vertex="1" parent="1">
          <mxGeometry x="520" y="89" width="80" height="40" as="geometry" />
        </mxCell>
        <mxCell id="7C_sbKcS_W9XTAqjWsiR-33" style="edgeStyle=orthogonalEdgeStyle;rounded=0;orthogonalLoop=1;jettySize=auto;html=1;entryX=0.5;entryY=1;entryDx=0;entryDy=0;" edge="1" parent="1" source="jrfLXAw_oT8_YJWAyEZR-7" target="jrfLXAw_oT8_YJWAyEZR-1">
          <mxGeometry relative="1" as="geometry" />
        </mxCell>
        <mxCell id="jrfLXAw_oT8_YJWAyEZR-7" value="Suspend mode" style="rounded=1;whiteSpace=wrap;html=1;" vertex="1" parent="1">
          <mxGeometry x="390" y="169" width="80" height="40" as="geometry" />
        </mxCell>
        <mxCell id="7C_sbKcS_W9XTAqjWsiR-39" value="&lt;font style=&quot;font-size: 10px; color: rgb(0, 0, 102);&quot;&gt;Server activated Bootstrap trigger&lt;/font&gt;" style="text;html=1;align=center;verticalAlign=middle;resizable=0;points=[];autosize=1;strokeColor=none;fillColor=none;" vertex="1" parent="1">
          <mxGeometry x="271" y="8" width="167" height="26" as="geometry" />
        </mxCell>
        <mxCell id="7C_sbKcS_W9XTAqjWsiR-40" value="&lt;font style=&quot;font-size: 10px; color: rgb(0, 0, 102);&quot;&gt;Server activated Disable Trigger&lt;/font&gt;" style="text;html=1;align=center;verticalAlign=middle;resizable=0;points=[];autosize=1;strokeColor=none;fillColor=none;" vertex="1" parent="1">
          <mxGeometry x="422" y="137" width="160" height="26" as="geometry" />
        </mxCell>
        <mxCell id="7C_sbKcS_W9XTAqjWsiR-41" style="edgeStyle=orthogonalEdgeStyle;rounded=0;orthogonalLoop=1;jettySize=auto;html=1;exitX=1;exitY=0.25;exitDx=0;exitDy=0;entryX=0;entryY=0.5;entryDx=0;entryDy=0;strokeColor=#A8A8A8;" edge="1" parent="1" source="7C_sbKcS_W9XTAqjWsiR-43" target="7C_sbKcS_W9XTAqjWsiR-49">
          <mxGeometry relative="1" as="geometry" />
        </mxCell>
        <mxCell id="7C_sbKcS_W9XTAqjWsiR-42" style="edgeStyle=orthogonalEdgeStyle;rounded=0;orthogonalLoop=1;jettySize=auto;html=1;exitX=1;exitY=0.75;exitDx=0;exitDy=0;entryX=0;entryY=0.75;entryDx=0;entryDy=0;strokeColor=#A8A8A8;" edge="1" parent="1" source="7C_sbKcS_W9XTAqjWsiR-43" target="7C_sbKcS_W9XTAqjWsiR-51">
          <mxGeometry relative="1" as="geometry" />
        </mxCell>
        <mxCell id="7C_sbKcS_W9XTAqjWsiR-69" style="edgeStyle=orthogonalEdgeStyle;rounded=0;orthogonalLoop=1;jettySize=auto;html=1;exitX=0.5;exitY=1;exitDx=0;exitDy=0;entryX=0.5;entryY=0;entryDx=0;entryDy=0;strokeColor=#FF0000;" edge="1" parent="1" source="7C_sbKcS_W9XTAqjWsiR-43" target="7C_sbKcS_W9XTAqjWsiR-61">
          <mxGeometry relative="1" as="geometry" />
        </mxCell>
        <mxCell id="7C_sbKcS_W9XTAqjWsiR-43" value="Initial" style="rounded=1;whiteSpace=wrap;html=1;" vertex="1" parent="1">
          <mxGeometry x="30" y="330" width="80" height="40" as="geometry" />
        </mxCell>
        <mxCell id="7C_sbKcS_W9XTAqjWsiR-44" style="edgeStyle=orthogonalEdgeStyle;rounded=0;orthogonalLoop=1;jettySize=auto;html=1;entryX=0.5;entryY=0;entryDx=0;entryDy=0;strokeColor=#A8A8A8;" edge="1" parent="1" source="7C_sbKcS_W9XTAqjWsiR-47" target="7C_sbKcS_W9XTAqjWsiR-55">
          <mxGeometry relative="1" as="geometry" />
        </mxCell>
        <mxCell id="7C_sbKcS_W9XTAqjWsiR-45" style="edgeStyle=orthogonalEdgeStyle;rounded=0;orthogonalLoop=1;jettySize=auto;html=1;exitX=1;exitY=0.25;exitDx=0;exitDy=0;entryX=0;entryY=0.25;entryDx=0;entryDy=0;strokeColor=#A8A8A8;" edge="1" parent="1" source="7C_sbKcS_W9XTAqjWsiR-47" target="7C_sbKcS_W9XTAqjWsiR-53">
          <mxGeometry relative="1" as="geometry" />
        </mxCell>
        <mxCell id="7C_sbKcS_W9XTAqjWsiR-46" style="edgeStyle=orthogonalEdgeStyle;rounded=0;orthogonalLoop=1;jettySize=auto;html=1;entryX=0.5;entryY=0;entryDx=0;entryDy=0;strokeColor=#A8A8A8;" edge="1" parent="1" source="7C_sbKcS_W9XTAqjWsiR-47" target="7C_sbKcS_W9XTAqjWsiR-49">
          <mxGeometry relative="1" as="geometry">
            <Array as="points">
              <mxPoint x="430" y="247" />
              <mxPoint x="190" y="247" />
            </Array>
          </mxGeometry>
        </mxCell>
        <mxCell id="7C_sbKcS_W9XTAqjWsiR-64" style="edgeStyle=orthogonalEdgeStyle;rounded=0;orthogonalLoop=1;jettySize=auto;html=1;exitX=0.25;exitY=1;exitDx=0;exitDy=0;entryX=0.75;entryY=1;entryDx=0;entryDy=0;strokeColor=#FF0000;" edge="1" parent="1" source="7C_sbKcS_W9XTAqjWsiR-47" target="7C_sbKcS_W9XTAqjWsiR-51">
          <mxGeometry relative="1" as="geometry" />
        </mxCell>
        <mxCell id="7C_sbKcS_W9XTAqjWsiR-47" value="Registration Session" style="rounded=1;whiteSpace=wrap;html=1;" vertex="1" parent="1">
          <mxGeometry x="390" y="330" width="80" height="40" as="geometry" />
        </mxCell>
        <mxCell id="7C_sbKcS_W9XTAqjWsiR-48" style="edgeStyle=orthogonalEdgeStyle;rounded=0;orthogonalLoop=1;jettySize=auto;html=1;entryX=0;entryY=0.25;entryDx=0;entryDy=0;strokeColor=#A8A8A8;exitX=1;exitY=0.75;exitDx=0;exitDy=0;" edge="1" parent="1" source="7C_sbKcS_W9XTAqjWsiR-49" target="7C_sbKcS_W9XTAqjWsiR-51">
          <mxGeometry relative="1" as="geometry" />
        </mxCell>
        <mxCell id="7C_sbKcS_W9XTAqjWsiR-62" style="edgeStyle=orthogonalEdgeStyle;rounded=0;orthogonalLoop=1;jettySize=auto;html=1;exitX=0.25;exitY=1;exitDx=0;exitDy=0;entryX=1;entryY=0.25;entryDx=0;entryDy=0;strokeColor=#FF0000;" edge="1" parent="1" source="7C_sbKcS_W9XTAqjWsiR-49" target="7C_sbKcS_W9XTAqjWsiR-61">
          <mxGeometry relative="1" as="geometry" />
        </mxCell>
        <mxCell id="7C_sbKcS_W9XTAqjWsiR-49" value="Bootstrap" style="rounded=1;whiteSpace=wrap;html=1;" vertex="1" parent="1">
          <mxGeometry x="150" y="290" width="80" height="40" as="geometry" />
        </mxCell>
        <mxCell id="7C_sbKcS_W9XTAqjWsiR-50" value="" style="edgeStyle=orthogonalEdgeStyle;rounded=0;orthogonalLoop=1;jettySize=auto;html=1;strokeColor=#A8A8A8;" edge="1" parent="1" source="7C_sbKcS_W9XTAqjWsiR-51" target="7C_sbKcS_W9XTAqjWsiR-47">
          <mxGeometry relative="1" as="geometry" />
        </mxCell>
        <mxCell id="7C_sbKcS_W9XTAqjWsiR-63" style="edgeStyle=orthogonalEdgeStyle;rounded=0;orthogonalLoop=1;jettySize=auto;html=1;exitX=0.25;exitY=1;exitDx=0;exitDy=0;entryX=1;entryY=0.75;entryDx=0;entryDy=0;strokeColor=#FF0000;" edge="1" parent="1" source="7C_sbKcS_W9XTAqjWsiR-51" target="7C_sbKcS_W9XTAqjWsiR-61">
          <mxGeometry relative="1" as="geometry" />
        </mxCell>
        <mxCell id="7C_sbKcS_W9XTAqjWsiR-66" style="edgeStyle=orthogonalEdgeStyle;rounded=0;orthogonalLoop=1;jettySize=auto;html=1;exitX=0;exitY=0.5;exitDx=0;exitDy=0;entryX=0.5;entryY=1;entryDx=0;entryDy=0;strokeColor=#FF0000;" edge="1" parent="1" source="7C_sbKcS_W9XTAqjWsiR-51" target="7C_sbKcS_W9XTAqjWsiR-49">
          <mxGeometry relative="1" as="geometry" />
        </mxCell>
        <mxCell id="7C_sbKcS_W9XTAqjWsiR-51" value="Registration" style="rounded=1;whiteSpace=wrap;html=1;" vertex="1" parent="1">
          <mxGeometry x="270" y="330" width="80" height="40" as="geometry" />
        </mxCell>
        <mxCell id="7C_sbKcS_W9XTAqjWsiR-52" style="edgeStyle=orthogonalEdgeStyle;rounded=0;orthogonalLoop=1;jettySize=auto;html=1;exitX=0;exitY=0.75;exitDx=0;exitDy=0;entryX=1;entryY=0.75;entryDx=0;entryDy=0;strokeColor=#A8A8A8;" edge="1" parent="1" source="7C_sbKcS_W9XTAqjWsiR-53" target="7C_sbKcS_W9XTAqjWsiR-47">
          <mxGeometry relative="1" as="geometry" />
        </mxCell>
        <mxCell id="7C_sbKcS_W9XTAqjWsiR-65" style="edgeStyle=orthogonalEdgeStyle;rounded=0;orthogonalLoop=1;jettySize=auto;html=1;exitX=0.25;exitY=1;exitDx=0;exitDy=0;entryX=0.75;entryY=1;entryDx=0;entryDy=0;strokeColor=#FF0000;" edge="1" parent="1" source="7C_sbKcS_W9XTAqjWsiR-53" target="7C_sbKcS_W9XTAqjWsiR-51">
          <mxGeometry relative="1" as="geometry" />
        </mxCell>
        <mxCell id="7C_sbKcS_W9XTAqjWsiR-53" value="Queue mode" style="rounded=1;whiteSpace=wrap;html=1;" vertex="1" parent="1">
          <mxGeometry x="520" y="330" width="80" height="40" as="geometry" />
        </mxCell>
        <mxCell id="7C_sbKcS_W9XTAqjWsiR-54" style="edgeStyle=orthogonalEdgeStyle;rounded=0;orthogonalLoop=1;jettySize=auto;html=1;entryX=0.75;entryY=1;entryDx=0;entryDy=0;strokeColor=#A8A8A8;" edge="1" parent="1" source="7C_sbKcS_W9XTAqjWsiR-55" target="7C_sbKcS_W9XTAqjWsiR-43">
          <mxGeometry relative="1" as="geometry">
            <Array as="points">
              <mxPoint x="250" y="430" />
              <mxPoint x="250" y="390" />
              <mxPoint x="90" y="390" />
            </Array>
          </mxGeometry>
        </mxCell>
        <mxCell id="7C_sbKcS_W9XTAqjWsiR-55" value="Suspend mode" style="rounded=1;whiteSpace=wrap;html=1;" vertex="1" parent="1">
          <mxGeometry x="390" y="410" width="80" height="40" as="geometry" />
        </mxCell>
        <mxCell id="7C_sbKcS_W9XTAqjWsiR-61" value="Failure" style="rounded=1;whiteSpace=wrap;html=1;" vertex="1" parent="1">
          <mxGeometry x="30" y="410" width="80" height="40" as="geometry" />
        </mxCell>
        <mxCell id="7C_sbKcS_W9XTAqjWsiR-67" style="edgeStyle=orthogonalEdgeStyle;rounded=0;orthogonalLoop=1;jettySize=auto;html=1;exitX=1;exitY=0.25;exitDx=0;exitDy=0;entryX=0.75;entryY=0;entryDx=0;entryDy=0;strokeColor=#FF0000;" edge="1" parent="1" source="7C_sbKcS_W9XTAqjWsiR-49" target="7C_sbKcS_W9XTAqjWsiR-49">
          <mxGeometry relative="1" as="geometry">
            <Array as="points">
              <mxPoint x="250" y="300" />
              <mxPoint x="250" y="267" />
              <mxPoint x="210" y="267" />
            </Array>
          </mxGeometry>
        </mxCell>
        <mxCell id="7C_sbKcS_W9XTAqjWsiR-68" style="edgeStyle=orthogonalEdgeStyle;rounded=0;orthogonalLoop=1;jettySize=auto;html=1;exitX=1;exitY=0.25;exitDx=0;exitDy=0;entryX=0.75;entryY=0;entryDx=0;entryDy=0;strokeColor=#FF0000;" edge="1" parent="1" source="7C_sbKcS_W9XTAqjWsiR-51" target="7C_sbKcS_W9XTAqjWsiR-51">
          <mxGeometry relative="1" as="geometry">
            <Array as="points">
              <mxPoint x="370" y="340" />
              <mxPoint x="370" y="307" />
              <mxPoint x="330" y="307" />
            </Array>
          </mxGeometry>
        </mxCell>
        <mxCell id="7C_sbKcS_W9XTAqjWsiR-70" value="&lt;font style=&quot;color: rgb(255, 0, 0); font-size: 10px;&quot;&gt;Retrial&lt;/font&gt;" style="text;html=1;align=center;verticalAlign=middle;resizable=0;points=[];autosize=1;strokeColor=none;fillColor=none;" vertex="1" parent="1">
          <mxGeometry x="318" y="285" width="50" height="30" as="geometry" />
        </mxCell>
        <mxCell id="7C_sbKcS_W9XTAqjWsiR-72" value="&lt;font style=&quot;color: rgb(255, 0, 0); font-size: 10px;&quot;&gt;Retrial&lt;/font&gt;" style="text;html=1;align=center;verticalAlign=middle;resizable=0;points=[];autosize=1;strokeColor=none;fillColor=none;" vertex="1" parent="1">
          <mxGeometry x="198" y="245" width="50" height="30" as="geometry" />
        </mxCell>
        <mxCell id="7C_sbKcS_W9XTAqjWsiR-101" value="" style="endArrow=classic;html=1;rounded=0;strokeColor=#660066;" edge="1" parent="1">
          <mxGeometry width="50" height="50" relative="1" as="geometry">
            <mxPoint x="80" y="557" as="sourcePoint" />
            <mxPoint x="80" y="622" as="targetPoint" />
          </mxGeometry>
        </mxCell>
        <mxCell id="7C_sbKcS_W9XTAqjWsiR-102" value="&lt;font style=&quot;color: rgb(102, 0, 102);&quot;&gt;Client&lt;/font&gt;&lt;div&gt;&lt;font style=&quot;color: rgb(102, 0, 102);&quot;&gt;restart&lt;/font&gt;&lt;/div&gt;" style="text;html=1;align=left;verticalAlign=middle;resizable=0;points=[];autosize=1;strokeColor=none;fillColor=none;" vertex="1" parent="1">
          <mxGeometry x="81" y="547" width="60" height="40" as="geometry" />
        </mxCell>
        <mxCell id="7C_sbKcS_W9XTAqjWsiR-107" value="&lt;div&gt;&lt;font color=&quot;#660066&quot;&gt;Client&lt;/font&gt;&lt;/div&gt;&lt;div&gt;&lt;font color=&quot;#660066&quot;&gt;disable&lt;/font&gt;&lt;/div&gt;" style="text;html=1;align=left;verticalAlign=middle;resizable=0;points=[];autosize=1;strokeColor=none;fillColor=none;" vertex="1" parent="1">
          <mxGeometry x="440" y="764" width="60" height="40" as="geometry" />
        </mxCell>
        <mxCell id="7C_sbKcS_W9XTAqjWsiR-109" style="edgeStyle=orthogonalEdgeStyle;rounded=0;orthogonalLoop=1;jettySize=auto;html=1;exitX=1;exitY=0.25;exitDx=0;exitDy=0;entryX=0;entryY=0.5;entryDx=0;entryDy=0;strokeColor=#A8A8A8;" edge="1" parent="1" source="7C_sbKcS_W9XTAqjWsiR-112" target="7C_sbKcS_W9XTAqjWsiR-120">
          <mxGeometry relative="1" as="geometry" />
        </mxCell>
        <mxCell id="7C_sbKcS_W9XTAqjWsiR-110" style="edgeStyle=orthogonalEdgeStyle;rounded=0;orthogonalLoop=1;jettySize=auto;html=1;exitX=1;exitY=0.75;exitDx=0;exitDy=0;entryX=0;entryY=0.75;entryDx=0;entryDy=0;strokeColor=#A8A8A8;" edge="1" parent="1" source="7C_sbKcS_W9XTAqjWsiR-112" target="7C_sbKcS_W9XTAqjWsiR-124">
          <mxGeometry relative="1" as="geometry" />
        </mxCell>
        <mxCell id="7C_sbKcS_W9XTAqjWsiR-111" style="edgeStyle=orthogonalEdgeStyle;rounded=0;orthogonalLoop=1;jettySize=auto;html=1;exitX=0.5;exitY=1;exitDx=0;exitDy=0;entryX=0.5;entryY=0;entryDx=0;entryDy=0;strokeColor=#E98D8D;" edge="1" parent="1" source="7C_sbKcS_W9XTAqjWsiR-112" target="7C_sbKcS_W9XTAqjWsiR-130">
          <mxGeometry relative="1" as="geometry" />
        </mxCell>
        <mxCell id="7C_sbKcS_W9XTAqjWsiR-112" value="Initial" style="rounded=1;whiteSpace=wrap;html=1;" vertex="1" parent="1">
          <mxGeometry x="40" y="622" width="80" height="40" as="geometry" />
        </mxCell>
        <mxCell id="7C_sbKcS_W9XTAqjWsiR-113" style="edgeStyle=orthogonalEdgeStyle;rounded=0;orthogonalLoop=1;jettySize=auto;html=1;entryX=0.5;entryY=0;entryDx=0;entryDy=0;strokeColor=#A8A8A8;" edge="1" parent="1" source="7C_sbKcS_W9XTAqjWsiR-117" target="7C_sbKcS_W9XTAqjWsiR-129">
          <mxGeometry relative="1" as="geometry" />
        </mxCell>
        <mxCell id="7C_sbKcS_W9XTAqjWsiR-114" style="edgeStyle=orthogonalEdgeStyle;rounded=0;orthogonalLoop=1;jettySize=auto;html=1;exitX=1;exitY=0.25;exitDx=0;exitDy=0;entryX=0;entryY=0.25;entryDx=0;entryDy=0;strokeColor=#A8A8A8;" edge="1" parent="1" source="7C_sbKcS_W9XTAqjWsiR-117" target="7C_sbKcS_W9XTAqjWsiR-127">
          <mxGeometry relative="1" as="geometry" />
        </mxCell>
        <mxCell id="7C_sbKcS_W9XTAqjWsiR-115" style="edgeStyle=orthogonalEdgeStyle;rounded=0;orthogonalLoop=1;jettySize=auto;html=1;entryX=0.5;entryY=0;entryDx=0;entryDy=0;strokeColor=#A8A8A8;" edge="1" parent="1" source="7C_sbKcS_W9XTAqjWsiR-117" target="7C_sbKcS_W9XTAqjWsiR-120">
          <mxGeometry relative="1" as="geometry">
            <Array as="points">
              <mxPoint x="440" y="539" />
              <mxPoint x="200" y="539" />
            </Array>
          </mxGeometry>
        </mxCell>
        <mxCell id="7C_sbKcS_W9XTAqjWsiR-116" style="edgeStyle=orthogonalEdgeStyle;rounded=0;orthogonalLoop=1;jettySize=auto;html=1;exitX=0.25;exitY=1;exitDx=0;exitDy=0;entryX=0.75;entryY=1;entryDx=0;entryDy=0;strokeColor=#E98D8D;" edge="1" parent="1" source="7C_sbKcS_W9XTAqjWsiR-117" target="7C_sbKcS_W9XTAqjWsiR-124">
          <mxGeometry relative="1" as="geometry" />
        </mxCell>
        <mxCell id="7C_sbKcS_W9XTAqjWsiR-117" value="Registration Session" style="rounded=1;whiteSpace=wrap;html=1;" vertex="1" parent="1">
          <mxGeometry x="400" y="622" width="80" height="40" as="geometry" />
        </mxCell>
        <mxCell id="7C_sbKcS_W9XTAqjWsiR-118" style="edgeStyle=orthogonalEdgeStyle;rounded=0;orthogonalLoop=1;jettySize=auto;html=1;entryX=0;entryY=0.25;entryDx=0;entryDy=0;strokeColor=#A8A8A8;exitX=1;exitY=0.75;exitDx=0;exitDy=0;" edge="1" parent="1" source="7C_sbKcS_W9XTAqjWsiR-120" target="7C_sbKcS_W9XTAqjWsiR-124">
          <mxGeometry relative="1" as="geometry" />
        </mxCell>
        <mxCell id="7C_sbKcS_W9XTAqjWsiR-119" style="edgeStyle=orthogonalEdgeStyle;rounded=0;orthogonalLoop=1;jettySize=auto;html=1;exitX=0.25;exitY=1;exitDx=0;exitDy=0;entryX=1;entryY=0.25;entryDx=0;entryDy=0;strokeColor=#E98D8D;" edge="1" parent="1" source="7C_sbKcS_W9XTAqjWsiR-120" target="7C_sbKcS_W9XTAqjWsiR-130">
          <mxGeometry relative="1" as="geometry" />
        </mxCell>
        <mxCell id="7C_sbKcS_W9XTAqjWsiR-120" value="Bootstrap" style="rounded=1;whiteSpace=wrap;html=1;" vertex="1" parent="1">
          <mxGeometry x="160" y="582" width="80" height="40" as="geometry" />
        </mxCell>
        <mxCell id="7C_sbKcS_W9XTAqjWsiR-121" value="" style="edgeStyle=orthogonalEdgeStyle;rounded=0;orthogonalLoop=1;jettySize=auto;html=1;strokeColor=#A8A8A8;" edge="1" parent="1" source="7C_sbKcS_W9XTAqjWsiR-124" target="7C_sbKcS_W9XTAqjWsiR-117">
          <mxGeometry relative="1" as="geometry" />
        </mxCell>
        <mxCell id="7C_sbKcS_W9XTAqjWsiR-122" style="edgeStyle=orthogonalEdgeStyle;rounded=0;orthogonalLoop=1;jettySize=auto;html=1;exitX=0.25;exitY=1;exitDx=0;exitDy=0;entryX=1;entryY=0.75;entryDx=0;entryDy=0;strokeColor=#E98D8D;" edge="1" parent="1" source="7C_sbKcS_W9XTAqjWsiR-124" target="7C_sbKcS_W9XTAqjWsiR-130">
          <mxGeometry relative="1" as="geometry" />
        </mxCell>
        <mxCell id="7C_sbKcS_W9XTAqjWsiR-123" style="edgeStyle=orthogonalEdgeStyle;rounded=0;orthogonalLoop=1;jettySize=auto;html=1;exitX=0;exitY=0.5;exitDx=0;exitDy=0;entryX=0.5;entryY=1;entryDx=0;entryDy=0;strokeColor=#E98D8D;" edge="1" parent="1" source="7C_sbKcS_W9XTAqjWsiR-124" target="7C_sbKcS_W9XTAqjWsiR-120">
          <mxGeometry relative="1" as="geometry" />
        </mxCell>
        <mxCell id="7C_sbKcS_W9XTAqjWsiR-124" value="Registration" style="rounded=1;whiteSpace=wrap;html=1;" vertex="1" parent="1">
          <mxGeometry x="280" y="622" width="80" height="40" as="geometry" />
        </mxCell>
        <mxCell id="7C_sbKcS_W9XTAqjWsiR-125" style="edgeStyle=orthogonalEdgeStyle;rounded=0;orthogonalLoop=1;jettySize=auto;html=1;exitX=0;exitY=0.75;exitDx=0;exitDy=0;entryX=1;entryY=0.75;entryDx=0;entryDy=0;strokeColor=#A8A8A8;" edge="1" parent="1" source="7C_sbKcS_W9XTAqjWsiR-127" target="7C_sbKcS_W9XTAqjWsiR-117">
          <mxGeometry relative="1" as="geometry" />
        </mxCell>
        <mxCell id="7C_sbKcS_W9XTAqjWsiR-126" style="edgeStyle=orthogonalEdgeStyle;rounded=0;orthogonalLoop=1;jettySize=auto;html=1;exitX=0.25;exitY=1;exitDx=0;exitDy=0;entryX=0.75;entryY=1;entryDx=0;entryDy=0;strokeColor=#E98D8D;" edge="1" parent="1" source="7C_sbKcS_W9XTAqjWsiR-127" target="7C_sbKcS_W9XTAqjWsiR-124">
          <mxGeometry relative="1" as="geometry" />
        </mxCell>
        <mxCell id="7C_sbKcS_W9XTAqjWsiR-127" value="Queue mode" style="rounded=1;whiteSpace=wrap;html=1;" vertex="1" parent="1">
          <mxGeometry x="520" y="622" width="80" height="40" as="geometry" />
        </mxCell>
        <mxCell id="7C_sbKcS_W9XTAqjWsiR-128" style="edgeStyle=orthogonalEdgeStyle;rounded=0;orthogonalLoop=1;jettySize=auto;html=1;entryX=0.75;entryY=1;entryDx=0;entryDy=0;strokeColor=#A8A8A8;" edge="1" parent="1" source="7C_sbKcS_W9XTAqjWsiR-129" target="7C_sbKcS_W9XTAqjWsiR-112">
          <mxGeometry relative="1" as="geometry">
            <Array as="points">
              <mxPoint x="250" y="722" />
              <mxPoint x="250" y="680" />
              <mxPoint x="100" y="680" />
            </Array>
          </mxGeometry>
        </mxCell>
        <mxCell id="7C_sbKcS_W9XTAqjWsiR-129" value="Suspend mode" style="rounded=1;whiteSpace=wrap;html=1;" vertex="1" parent="1">
          <mxGeometry x="400" y="702" width="80" height="40" as="geometry" />
        </mxCell>
        <mxCell id="7C_sbKcS_W9XTAqjWsiR-130" value="Failure" style="rounded=1;whiteSpace=wrap;html=1;" vertex="1" parent="1">
          <mxGeometry x="40" y="702" width="80" height="40" as="geometry" />
        </mxCell>
        <mxCell id="7C_sbKcS_W9XTAqjWsiR-131" style="edgeStyle=orthogonalEdgeStyle;rounded=0;orthogonalLoop=1;jettySize=auto;html=1;exitX=1;exitY=0.25;exitDx=0;exitDy=0;entryX=0.75;entryY=0;entryDx=0;entryDy=0;strokeColor=#E98D8D;" edge="1" parent="1" source="7C_sbKcS_W9XTAqjWsiR-120" target="7C_sbKcS_W9XTAqjWsiR-120">
          <mxGeometry relative="1" as="geometry">
            <Array as="points">
              <mxPoint x="260" y="592" />
              <mxPoint x="260" y="559" />
              <mxPoint x="220" y="559" />
            </Array>
          </mxGeometry>
        </mxCell>
        <mxCell id="7C_sbKcS_W9XTAqjWsiR-132" style="edgeStyle=orthogonalEdgeStyle;rounded=0;orthogonalLoop=1;jettySize=auto;html=1;exitX=1;exitY=0.25;exitDx=0;exitDy=0;entryX=0.75;entryY=0;entryDx=0;entryDy=0;strokeColor=#E98D8D;" edge="1" parent="1" source="7C_sbKcS_W9XTAqjWsiR-124" target="7C_sbKcS_W9XTAqjWsiR-124">
          <mxGeometry relative="1" as="geometry">
            <Array as="points">
              <mxPoint x="380" y="632" />
              <mxPoint x="380" y="599" />
              <mxPoint x="340" y="599" />
            </Array>
          </mxGeometry>
        </mxCell>
        <mxCell id="7C_sbKcS_W9XTAqjWsiR-135" value="" style="endArrow=classic;html=1;rounded=0;strokeColor=#660066;entryX=0.25;entryY=0;entryDx=0;entryDy=0;" edge="1" parent="1" target="7C_sbKcS_W9XTAqjWsiR-120">
          <mxGeometry width="50" height="50" relative="1" as="geometry">
            <mxPoint x="180" y="497" as="sourcePoint" />
            <mxPoint x="178" y="562" as="targetPoint" />
          </mxGeometry>
        </mxCell>
        <mxCell id="7C_sbKcS_W9XTAqjWsiR-136" value="&lt;font color=&quot;#660066&quot;&gt;Bootstrap&lt;/font&gt;&lt;div&gt;&lt;font color=&quot;#660066&quot;&gt;request&lt;/font&gt;&lt;/div&gt;" style="text;html=1;align=left;verticalAlign=middle;resizable=0;points=[];autosize=1;strokeColor=none;fillColor=none;" vertex="1" parent="1">
          <mxGeometry x="181" y="487" width="70" height="40" as="geometry" />
        </mxCell>
        <mxCell id="7C_sbKcS_W9XTAqjWsiR-138" value="" style="endArrow=classic;html=1;rounded=0;strokeColor=#660066;entryX=0.5;entryY=1;entryDx=0;entryDy=0;" edge="1" parent="1" target="7C_sbKcS_W9XTAqjWsiR-129">
          <mxGeometry width="50" height="50" relative="1" as="geometry">
            <mxPoint x="440" y="797" as="sourcePoint" />
            <mxPoint x="350" y="852" as="targetPoint" />
          </mxGeometry>
        </mxCell>
      </root>
    </mxGraphModel>
  </diagram>
</mxfile>
